# xmcd CD database file
#
# Track frame offsets:
#	150
#	16267
#	35609
#	57538
#	73320
#	92214
#	115623
#	132579
#	148848
#	163527
#
# Disc length: 2564 seconds
#
# Revision: 0
# Processed by: cddbd v1.5.2PL0 Copyright (c) Steve Scherf et al.
# Submitted via: CDex 1.70beta2
#
DISCID=940a020a
DTITLE=Stoney Larue - Velvet
DYEAR=2011
DGENRE=Country
TTITLE0=Dresses
TTITLE1=Wiregrass
TTITLE2=Look At Me Fly
TTITLE3=Travelin' Kind
TTITLE4=Sharecropper
TTITLE5=Sirens
TTITLE6=Te Amo Mas Que La Vida
TTITLE7=Has Been
TTITLE8=Way Too Long
TTITLE9=Velvet
EXTD=YEAR: 2011
EXTT0=
EXTT1=
EXTT2=
EXTT3=
EXTT4=
EXTT5=
EXTT6=
EXTT7=
EXTT8=
EXTT9=
PLAYORDER=
